<svg xmlns="http://www.w3.org/2000/svg" version="1.1" xmlns:xlink="http://www.w3.org/1999/xlink" xmlns:svgjs="http://svgjs.dev/svgjs" width="1440" height="560" preserveAspectRatio="none" viewBox="0 0 1440 560"><g mask="url(&quot;#SvgjsMask1000&quot;)" fill="none"><rect width="1440" height="560" x="0" y="0" fill="#1e3266"></rect><path d="M1560 560L0 560 L0 323Q22.63 273.63, 72 296.25Q114.59 266.84, 144 309.43Q229.29 274.72, 264 360.01Q285.68 309.69, 336 331.36Q378.48 253.84, 456 296.31Q484.07 252.38, 528 280.45Q578.21 258.66, 600 308.88Q652.83 289.7, 672 342.53Q746.12 296.64, 792 370.76Q798.79 305.55, 864 312.34Q892.42 268.76, 936 297.19Q1026.54 267.73, 1056 358.26Q1072.51 302.76, 1128 319.27Q1180.36 251.63, 1248 303.98Q1342.47 278.46, 1368 372.93Q1383.45 316.38, 1440 331.83Q1488.37 260.2, 1560 308.57z" fill="#182f5d"></path><path d="M1560 560L0 560 L0 411.74Q46.38 386.12, 72 432.5Q80.66 369.16, 144 377.82Q171.63 333.44, 216 361.07Q296.72 321.79, 336 402.51Q377.75 372.25, 408 414Q449.43 383.43, 480 424.86Q524.73 397.59, 552 442.31Q567.92 386.23, 624 402.15Q697.19 355.34, 744 428.53Q768.32 332.85, 864 357.17Q941.28 314.45, 984 391.73Q1041.1 376.83, 1056 433.92Q1081.16 387.08, 1128 412.24Q1165.83 330.06, 1248 367.89Q1339.75 339.64, 1368 431.39Q1397.38 388.77, 1440 418.15Q1493.6 351.75, 1560 405.35z" fill="#25467d"></path><path d="M1464 560L0 560 L0 434.14Q40.93 403.06, 72 443.99Q129.9 429.89, 144 487.8Q169.09 440.89, 216 465.98Q255.24 385.22, 336 424.46Q408.56 377.02, 456 449.58Q499.5 421.08, 528 464.59Q589.63 454.22, 600 515.84Q621.41 465.25, 672 486.66Q686.16 428.83, 744 442.99Q770.81 397.8, 816 424.61Q899.5 388.12, 936 471.62Q960.64 424.26, 1008 448.9Q1061.84 430.74, 1080 484.58Q1115.62 400.2, 1200 435.82Q1266.5 382.32, 1320 448.82Q1375.51 432.33, 1392 487.84Q1438.04 461.88, 1464 507.92z" fill="#356cb1"></path><path d="M1560 560L0 560 L0 545.42Q66.29 491.71, 120 558.01Q167.82 533.83, 192 581.64Q246 515.64, 312 569.65Q363.28 500.93, 432 552.21Q484.37 484.58, 552 536.95Q632.83 497.78, 672 578.61Q679.95 514.56, 744 522.51Q792.97 451.48, 864 500.44Q922.32 486.76, 936 545.08Q978.74 515.82, 1008 558.55Q1041.12 471.66, 1128 504.78Q1205.84 462.62, 1248 540.45Q1325.31 497.76, 1368 575.07Q1391.81 526.88, 1440 550.69Q1494.25 484.94, 1560 539.19z" fill="white"></path></g><defs><mask id="SvgjsMask1000"><rect width="1440" height="560" fill="#ffffff"></rect></mask></defs></svg>